<svg width="148" height="22" viewBox="0 0 148 22" fill="none" xmlns="http://www.w3.org/2000/svg">
<path d="M4.07241 14.2941C4.56014 14.6357 5.18608 14.8063 5.95006 14.8063C6.68165 14.8063 7.25875 14.6883 7.68135 14.4528C8.10413 14.217 8.31543 13.8795 8.31543 13.4406C8.31543 13.1155 8.21792 12.8716 8.0229 12.709C7.82771 12.5465 7.55145 12.4288 7.19379 12.3555C6.83614 12.2824 6.2509 12.197 5.43791 12.0995C4.33239 11.9532 3.41392 11.7661 2.68233 11.5385C1.95074 11.3109 1.3655 10.9533 0.926447 10.4656C0.48756 9.97784 0.26795 9.32765 0.26795 8.51466C0.26795 7.70167 0.491381 6.98254 0.938574 6.3566C1.38577 5.73067 2.01569 5.24709 2.82851 4.90572C3.64133 4.56418 4.57609 4.39374 5.63294 4.39374C7.33998 4.41002 8.71777 4.77565 9.76632 5.49112C10.815 6.2066 11.3798 7.198 11.4611 8.46615H8.19333C8.14466 7.99454 7.89664 7.60864 7.44962 7.3078C7.00259 7.00713 6.42948 6.85679 5.73045 6.85679C5.08009 6.85679 4.55582 6.97855 4.15763 7.22258C3.75928 7.46628 3.5601 7.79154 3.5601 8.19803C3.5601 8.49074 3.66575 8.71018 3.87706 8.85653C4.08853 9.00272 4.36478 9.10853 4.70616 9.17349C5.04753 9.23861 5.61666 9.3117 6.4132 9.39293C8.10396 9.58812 9.40052 9.94976 10.3027 10.478C11.2049 11.0063 11.6561 11.9128 11.6561 13.1971C11.6561 14.0099 11.4162 14.7254 10.9368 15.3432C10.4572 15.961 9.79057 16.4366 8.93722 16.7698C8.08369 17.103 7.09612 17.2698 5.97431 17.2698C4.23488 17.2698 2.82037 16.8836 1.73113 16.1115C0.642051 15.3387 0.0649526 14.286 0 12.9529H3.26773C3.3164 13.5055 3.58469 13.9527 4.07241 14.2941Z" fill="#1A1C43"/>
<path d="M26.0778 10.319V17.1228H22.6393V10.4655C22.6393 9.42514 22.428 8.63258 22.0053 8.08788C21.5826 7.54317 20.9487 7.2709 20.1033 7.2709C19.2253 7.2709 18.5384 7.57174 18.0426 8.1731C17.5467 8.77445 17.2989 9.61185 17.2989 10.6848V17.1228H13.8604V0.0528564H17.2989V6.12485C18.2255 5.00288 19.4611 4.44222 21.0055 4.44222C22.4848 4.44222 23.7001 4.89756 24.6511 5.80789C25.6022 6.71822 26.0776 8.2221 26.0776 10.3192L26.0778 10.319Z" fill="#1A1C43"/>
<path d="M28.8061 14.2209C28.2614 13.2454 27.9891 12.1236 27.9891 10.8556C27.9891 9.58762 28.2614 8.46582 28.8061 7.49037C29.3506 6.51491 30.1229 5.76289 31.1226 5.23463C32.1225 4.70621 33.2809 4.44208 34.5977 4.44208C35.9145 4.44208 37.0729 4.70621 38.0727 5.23463C39.0726 5.76306 39.8447 6.51508 40.3894 7.49037C40.934 8.46582 41.2064 9.58745 41.2064 10.8556C41.2064 12.14 40.9341 13.2658 40.3894 14.2331C39.8447 15.2005 39.0726 15.9483 38.0727 16.4766C37.0729 17.0048 35.9145 17.2691 34.5977 17.2691C33.2809 17.2691 32.1225 17.005 31.1226 16.4766C30.1228 15.9482 29.3506 15.1961 28.8061 14.2209ZM37.7191 10.8556C37.7191 9.78264 37.4387 8.91284 36.8777 8.24621C36.3167 7.57957 35.5569 7.24634 34.5977 7.24634C33.6548 7.24634 32.9028 7.57974 32.342 8.24621C31.7811 8.91268 31.5007 9.78248 31.5007 10.8556C31.5007 11.9287 31.7811 12.7984 32.342 13.465C32.9028 14.1315 33.6548 14.4647 34.5977 14.4647C35.5569 14.4647 36.3169 14.1315 36.8777 13.465C37.4385 12.7985 37.7191 11.9287 37.7191 10.8556Z" fill="#1A1C43"/>
<path d="M55.4498 7.49049C55.9456 8.46594 56.1935 9.59588 56.1935 10.8802C56.1935 12.1644 55.9455 13.2862 55.4498 14.2454C54.9539 15.2046 54.267 15.9484 53.3891 16.4767C52.5113 17.0051 51.5114 17.2693 50.3896 17.2693C48.7802 17.2693 47.5202 16.692 46.6099 15.5378V22H43.1714V4.58855H46.1708L46.5122 6.31985C46.9348 5.75089 47.4754 5.29572 48.1339 4.95418C48.7924 4.6128 49.5524 4.4422 50.414 4.4422C51.5358 4.4422 52.5315 4.70633 53.4012 5.23475C54.271 5.76318 54.9537 6.5152 55.4496 7.49049H55.4498ZM52.7063 10.8313C52.7063 9.75835 52.4217 8.89253 51.8528 8.23404C51.2838 7.57554 50.536 7.24646 49.6092 7.24646C48.6824 7.24646 47.9428 7.57571 47.3902 8.23404C46.8373 8.89253 46.5611 9.75818 46.5611 10.8313C46.5611 11.9206 46.8375 12.7985 47.3902 13.465C47.9428 14.1314 48.6826 14.4647 49.6092 14.4647C50.5358 14.4647 51.2837 14.1275 51.8528 13.4527C52.4217 12.7781 52.7063 11.9041 52.7063 10.8313Z" fill="#1A1C43"/>
<path d="M62.1673 14.2941C62.655 14.6357 63.2809 14.8063 64.0449 14.8063C64.7765 14.8063 65.3536 14.6883 65.7762 14.4528C66.199 14.217 66.4103 13.8795 66.4103 13.4406C66.4103 13.1155 66.3128 12.8716 66.1177 12.709C65.9226 12.5465 65.6463 12.4288 65.2886 12.3555C64.931 12.2824 64.3458 12.197 63.5328 12.0995C62.4272 11.9532 61.5088 11.7661 60.7772 11.5385C60.0456 11.3109 59.4604 10.9533 59.0213 10.4656C58.5824 9.97784 58.3628 9.32765 58.3628 8.51466C58.3628 7.70167 58.5862 6.98254 59.0334 6.3566C59.4806 5.73067 60.1105 5.24709 60.9234 4.90572C61.7362 4.56418 62.6709 4.39374 63.7278 4.39374C65.4348 4.41002 66.8126 4.77565 67.8612 5.49112C68.9099 6.2066 69.4747 7.198 69.5559 8.46615H66.2882C66.2395 7.99454 65.9915 7.60864 65.5445 7.3078C65.0974 7.00713 64.5243 6.85679 63.8253 6.85679C63.1749 6.85679 62.6507 6.97855 62.2525 7.22258C61.8541 7.46628 61.6551 7.79154 61.6551 8.19803C61.6551 8.49074 61.7608 8.71018 61.9721 8.85653C62.1835 9.00272 62.4598 9.10853 62.8012 9.17349C63.1426 9.23861 63.7117 9.3117 64.5082 9.39293C66.199 9.58812 67.4955 9.94976 68.3977 10.478C69.2999 11.0063 69.7511 11.9128 69.7511 13.1971C69.7511 14.0099 69.5112 14.7254 69.0318 15.3432C68.5522 15.961 67.8856 16.4366 67.0322 16.7698C66.1787 17.103 65.1911 17.2698 64.0693 17.2698C62.3299 17.2698 60.9154 16.8836 59.8261 16.1115C58.7369 15.3393 58.1598 14.2866 58.0948 12.9534H61.3626C61.4113 13.506 61.6795 13.9532 62.1673 14.2946V14.2941Z" fill="#1A1C43"/>
<path d="M70.853 7.4905V4.58856H72.9259V1.07697H76.3644V4.58856H79.2175V7.4905H76.3644V12.9773C76.3644 13.4161 76.4577 13.7333 76.6448 13.9284C76.8317 14.1236 77.1448 14.221 77.5837 14.221H79.3638V17.1229H76.5107C74.1209 17.1229 72.926 15.928 72.926 13.5382V7.4905H70.8532H70.853Z" fill="#1A1C43"/>
<path d="M81.4968 14.2209C80.9522 13.2454 80.6798 12.1236 80.6798 10.8556C80.6798 9.58762 80.9522 8.46582 81.4968 7.49037C82.0415 6.51491 82.8136 5.76289 83.8135 5.23463C84.8132 4.70621 85.9715 4.44208 87.2885 4.44208C88.6055 4.44208 89.7635 4.70621 90.7636 5.23463C91.7633 5.76306 92.5357 6.51508 93.0801 7.49037C93.6248 8.46582 93.8971 9.58745 93.8971 10.8556C93.8971 12.14 93.6248 13.2658 93.0801 14.2331C92.5356 15.2005 91.7633 15.9483 90.7636 16.4766C89.7637 17.005 88.6055 17.2691 87.2885 17.2691C85.9715 17.2691 84.8134 17.005 83.8135 16.4766C82.8136 15.9482 82.0413 15.1961 81.4968 14.2209ZM90.4099 10.8556C90.4099 9.78264 90.1295 8.91284 89.5687 8.24621C89.0077 7.57974 88.2477 7.24634 87.2885 7.24634C86.3456 7.24634 85.5938 7.57974 85.0328 8.24621C84.472 8.91268 84.1916 9.78248 84.1916 10.8556C84.1916 11.9287 84.472 12.7984 85.0328 13.465C85.5938 14.1315 86.3456 14.4647 87.2885 14.4647C88.2475 14.4647 89.0077 14.1315 89.5687 13.465C90.1295 12.7985 90.4099 11.9287 90.4099 10.8556Z" fill="#1A1C43"/>
<path d="M103.495 7.70994H102.129C101.154 7.70994 100.439 8.00248 99.9832 8.58788C99.5278 9.17312 99.3004 9.96966 99.3004 10.9775V17.1228H95.8619V4.58856H98.9833L99.3004 6.46621C99.6744 5.84841 100.138 5.38112 100.69 5.064C101.243 4.74704 101.983 4.58856 102.91 4.58856H103.495V7.70994V7.70994Z" fill="#1A1C43"/>
<path d="M111.108 13.5869L114.083 4.58856H117.765L112.205 18.9031C111.913 19.6672 111.637 20.2646 111.376 20.6955C111.116 21.1262 110.787 21.4513 110.389 21.6709C109.99 21.8904 109.474 22.0002 108.84 22.0002H105.5V19.0982H107.402C107.841 19.0982 108.158 19.0252 108.353 18.8788C108.548 18.7325 108.735 18.4479 108.914 18.0253L109.231 17.1962L104.402 4.58873H108.06L111.108 13.5871L111.108 13.5869Z" fill="#1A1C43"/>
<path d="M145.425 0.0166028C146.363 -0.128419 147.163 0.6952 146.991 1.62829L143.982 17.9864C143.729 19.3577 141.715 19.578 141.1 18.3264C139.878 15.8391 138.201 12.8784 136.379 10.9796C134.415 8.93239 131.007 6.8652 128.283 5.39421C127.075 4.74203 127.365 2.8104 128.722 2.60059L145.425 0.0166028Z" fill="#A179F4"/>
<path d="M138.151 6.68863C139.089 6.54344 139.889 7.36723 139.717 8.30032L137.43 20.7292C137.178 22.1005 135.149 22.3271 134.511 21.087C133.541 19.2009 132.302 17.1266 130.969 15.7373C129.501 14.208 127.064 12.6656 124.943 11.4823C123.744 10.8135 124.039 8.87144 125.396 8.66163L138.151 6.68847V6.68863Z" fill="#FEB800"/>
<path d="M138.151 6.68859L132.089 7.62633C133.723 8.67804 135.278 9.8319 136.379 10.9796C137.181 11.815 137.955 12.8564 138.674 13.9724L139.717 8.30045C139.889 7.36719 139.089 6.54357 138.151 6.68876L138.151 6.68859Z" fill="#7132FF"/>
</svg>
